PathFileType   4   (X/Y/Z)
DataRate	CameraRate	NumFrames	NumMarkers	Units	OrigDataRate	OrigDataStartFrame	OrigNumFrames
120.0	120.0	11	37	mm	120.0	35	136
Frame#	Time	midhip	hip_r	hip_l	knee_r	knee_l	ankle_r	ankle_l	midasis	asis_r	asis_l	psis_r	psis_l	epicondLat_r	epicondLat_l	epicondMed_r	epicondMed_l	malleolusLat_r	malleolusLat_l	malleolusMedv_r	malleolusMedv_l	neck	subclavicle_r	subclavicle_l	sternalnotch	xyphoidprocess	thighwand_r	thighwand_l	upperleg1_r	upperleg1_l	upperleg2_r	upperleg2_l	shankwand_r	shankwand_l	lowerleg1_r	lowerleg1_l	toe_r	toe_l
 	 	X1	Y1	Z1	X2	Y2	Z2	X3	Y3	Z3	X4	Y4	Z4	X5	Y5	Z5	X6	Y6	Z6	X7	Y7	Z7	X8	Y8	Z8	X9	Y9	Z9	X10	Y10	Z10	X11	Y11	Z11	X12	Y12	Z12	X13	Y13	Z13	X14	Y14	Z14	X15	Y15	Z15	X16	Y16	Z16	X17	Y17	Z17	X18	Y18	Z18	X19	Y19	Z19	X20	Y20	Z20	X21	Y21	Z21	X22	Y22	Z22	X23	Y23	Z23	X24	Y24	Z24	X25	Y25	Z25	X26	Y26	Z26	X27	Y27	Z27	X28	Y28	Z28	X29	Y29	Z29	X30	Y30	Z30	X31	Y31	Z31	X32	Y32	Z32	X33	Y33	Z33	X34	Y34	Z34	X35	Y35	Z35	X36	Y36	Z36	X37	Y37	Z37

	35	0.51667	1572.650	771.121	-278.056	1553.210	775.140	-199.124	1554.766	774.492	-354.744	1737.773	424.610	-196.000	1504.245	425.663	-323.066	1731.524	72.090	-204.419	1438.711	63.403	-300.765	1683.245	844.276	-275.931	1682.001	844.795	-151.506	1684.489	843.758	-400.356	1441.459	919.876	-243.589	1439.549	920.608	-298.679	1745.972	429.558	-125.144	1501.703	419.565	-394.260	1734.442	418.368	-263.451	1498.061	422.389	-239.541	1722.055	71.366	-167.109	1421.052	64.424	-336.084	1739.014	82.433	-240.899	1438.748	81.905	-260.186	1496.019	1347.233	-273.792	1616.914	1273.880	-231.962	1621.431	1278.132	-314.122	1603.087	1271.870	-286.290	1651.265	1196.049	-286.414	1815.609	639.095	-136.413	1711.453	571.802	-347.164	1769.270	639.285	-153.237	1665.668	594.883	-354.002	1784.458	563.901	-157.936	1635.641	528.322	-346.312	1817.257	213.938	-172.863	1432.419	166.477	-409.324	1774.270	221.344	-184.652	1437.429	181.078	-363.326	1835.319	62.331	-193.892	1535.525	45.412	-315.838
	36	0.52500	1579.276	770.392	-277.911	1560.194	774.215	-198.824	1561.018	773.994	-354.451	1744.286	424.231	-197.899	1507.970	425.696	-322.966	1754.017	70.936	-204.611	1439.037	63.907	-300.669	1689.896	843.509	-276.052	1689.237	843.686	-151.669	1690.554	843.333	-400.435	1448.218	919.144	-242.357	1445.994	920.043	-297.405	1752.641	428.813	-127.037	1504.940	419.722	-394.151	1737.873	417.433	-265.695	1503.413	422.214	-239.292	1744.602	69.968	-167.293	1421.294	65.114	-335.940	1762.029	81.136	-241.090	1438.724	82.414	-259.905	1502.372	1346.480	-273.159	1623.312	1273.151	-232.213	1627.901	1277.453	-313.806	1609.506	1271.282	-286.174	1657.735	1195.365	-286.416	1821.891	637.040	-137.751	1716.225	570.565	-348.171	1775.240	637.432	-153.893	1670.429	594.060	-354.968	1790.137	561.439	-159.574	1640.674	528.065	-347.005	1833.600	216.935	-173.668	1433.419	167.103	-409.216	1790.374	222.267	-186.081	1438.336	181.786	-362.892	1858.325	63.512	-194.665	1535.732	45.414	-315.913
	37	0.53333	1585.989	769.638	-277.787	1567.273	773.260	-198.532	1567.346	773.470	-354.161	1750.698	423.789	-199.787	1511.902	425.694	-322.908	1775.656	70.319	-204.649	1439.374	64.444	-300.599	1696.625	842.725	-276.193	1696.567	842.558	-151.864	1696.682	842.892	-400.523	1455.082	918.372	-241.046	1452.525	919.430	-296.072	1759.156	427.974	-128.913	1508.336	419.867	-394.080	1741.624	416.706	-268.828	1508.988	421.260	-239.362	1766.303	69.145	-167.320	1421.559	65.845	-335.826	1784.063	80.540	-241.107	1438.527	82.893	-259.602	1508.432	1345.615	-272.397	1630.183	1272.375	-232.050	1634.459	1276.947	-313.400	1615.968	1270.624	-286.008	1664.702	1194.890	-286.505	1828.089	634.762	-138.979	1721.134	569.300	-349.334	1781.411	635.272	-154.744	1675.400	593.682	-355.141	1795.773	558.911	-161.454	1645.256	527.710	-347.679	1849.211	220.078	-174.408	1434.514	167.741	-409.137	1805.683	223.540	-187.371	1439.134	181.935	-362.611	1880.401	64.906	-195.392	1535.956	45.438	-315.958
	38	0.54167	1592.777	768.865	-277.632	1574.448	772.293	-198.220	1573.736	772.912	-353.846	1757.047	423.315	-201.637	1516.027	425.645	-322.897	1796.340	70.187	-204.543	1439.717	65.017	-300.572	1703.425	841.929	-276.349	1703.994	841.434	-152.078	1702.856	842.423	-400.620	1462.058	917.564	-239.659	1459.146	918.770	-294.683	1765.566	427.078	-130.746	1511.883	419.993	-394.053	1746.475	414.922	-271.270	1512.313	423.066	-238.533	1787.056	68.847	-167.203	1421.843	66.621	-335.760	1804.743	80.591	-240.979	1440.054	83.578	-259.771	1514.495	1344.771	-271.883	1636.958	1271.397	-231.644	1641.085	1276.657	-313.338	1622.422	1269.899	-285.775	1671.674	1194.490	-286.967	1834.229	632.303	-140.106	1726.172	568.009	-350.632	1787.575	632.811	-156.133	1680.179	592.547	-356.950	1801.360	556.124	-163.101	1649.370	526.554	-348.401	1864.064	223.311	-175.081	1435.699	168.402	-409.103	1820.248	224.875	-188.256	1441.135	182.606	-362.942	1901.473	66.498	-196.048	1536.191	45.485	-315.980
	39	0.55000	1599.632	768.073	-277.407	1581.720	771.327	-197.859	1580.180	772.318	-353.477	1763.367	422.829	-203.412	1520.324	425.542	-322.938	1815.982	70.474	-204.327	1440.067	65.629	-300.600	1710.293	841.125	-276.507	1711.522	840.335	-152.294	1709.064	841.916	-400.720	1469.145	916.724	-238.201	1465.857	918.068	-293.241	1771.916	426.155	-132.503	1515.567	420.098	-394.072	1749.960	412.660	-272.038	1514.384	423.978	-240.875	1806.775	69.002	-166.973	1422.146	67.444	-335.754	1823.801	81.307	-240.768	1441.169	84.371	-259.934	1520.904	1344.009	-271.320	1643.543	1270.338	-231.275	1647.543	1275.970	-313.612	1628.841	1269.119	-285.489	1678.144	1193.666	-287.302	1840.335	629.713	-141.139	1731.325	566.693	-352.039	1793.216	630.168	-157.005	1686.836	590.821	-357.480	1806.460	553.437	-164.123	1653.670	524.703	-349.727	1878.147	226.563	-175.709	1436.972	169.096	-409.127	1834.395	226.248	-188.498	1443.035	183.767	-363.106	1921.474	68.265	-196.624	1536.432	45.552	-315.985
	40	0.55833	1606.555	767.268	-277.093	1589.086	770.372	-197.433	1586.670	771.686	-353.038	1769.689	422.339	-205.074	1524.770	425.382	-323.031	1834.502	71.088	-204.053	1440.424	66.284	-300.692	1717.222	840.321	-276.658	1719.150	839.271	-152.496	1715.295	841.370	-400.820	1476.335	915.862	-236.681	1472.655	917.330	-291.744	1778.252	425.226	-134.147	1519.377	420.184	-394.138	1753.646	410.070	-271.618	1521.798	419.989	-241.548	1825.387	69.515	-166.681	1422.472	68.315	-335.818	1841.673	82.515	-240.504	1440.626	85.043	-259.745	1527.293	1343.249	-270.477	1650.220	1269.729	-230.705	1653.497	1274.914	-313.540	1635.190	1268.271	-285.128	1684.287	1192.733	-286.818	1846.436	627.050	-142.081	1736.577	565.361	-353.519	1799.109	627.570	-157.794	1689.335	590.027	-359.908	1811.672	551.090	-164.585	1658.486	523.738	-351.424	1891.461	229.746	-176.324	1438.336	169.833	-409.218	1848.060	228.018	-188.604	1443.880	184.348	-362.820	1940.345	70.165	-197.131	1536.679	45.633	-315.977
	41	0.56667	1613.549	766.453	-276.690	1596.542	769.436	-196.934	1593.205	771.023	-352.519	1776.043	421.841	-206.587	1529.345	425.169	-323.174	1851.830	71.920	-203.785	1440.797	66.984	-300.850	1724.210	839.519	-276.794	1726.872	838.252	-152.668	1721.547	840.785	-400.919	1483.615	914.988	-235.113	1479.537	916.564	-290.193	1784.615	424.298	-135.645	1523.306	420.254	-394.249	1759.864	407.031	-271.811	1523.889	425.151	-243.092	1842.831	70.271	-166.388	1422.829	69.238	-335.955	1858.429	84.031	-240.262	1440.411	85.831	-259.738	1533.842	1342.183	-269.731	1656.875	1269.300	-230.386	1659.304	1273.800	-313.242	1641.463	1267.336	-284.706	1690.447	1191.873	-286.181	1852.563	624.383	-142.934	1741.916	564.025	-355.035	1805.387	624.733	-158.602	1698.610	588.806	-360.192	1817.890	548.440	-165.154	1664.534	523.863	-352.515	1904.012	232.757	-176.969	1439.795	170.614	-409.377	1860.864	230.186	-188.892	1444.980	184.944	-362.829	1958.030	72.144	-197.583	1536.931	45.721	-315.960
	42	0.57500	1620.608	765.640	-276.207	1604.078	768.527	-196.366	1599.784	770.338	-351.925	1782.451	421.322	-207.920	1534.040	424.913	-323.362	1867.906	72.847	-203.586	1441.194	67.733	-301.068	1731.253	838.726	-276.909	1734.679	837.281	-152.801	1727.827	840.171	-401.017	1490.972	914.118	-233.512	1486.503	915.785	-288.590	1791.039	423.373	-136.968	1527.359	420.311	-394.401	1766.497	404.659	-273.465	1529.004	427.450	-242.778	1859.055	71.142	-166.156	1423.228	70.213	-336.158	1873.532	85.695	-240.149	1441.625	86.745	-260.143	1540.175	1341.052	-269.075	1663.522	1268.601	-230.394	1665.275	1272.757	-312.924	1647.724	1266.348	-284.268	1696.777	1191.000	-285.967	1858.750	621.787	-143.700	1747.333	562.698	-356.550	1811.256	621.804	-159.080	1706.676	587.784	-360.699	1824.225	545.847	-166.224	1670.595	523.153	-353.154	1915.812	235.488	-177.679	1441.360	171.443	-409.598	1872.679	232.303	-189.092	1447.118	185.958	-363.347	1974.472	74.133	-198.003	1537.189	45.807	-315.935
	43	0.58333	1627.724	764.842	-275.661	1611.683	767.650	-195.742	1606.412	769.643	-351.269	1788.926	420.765	-209.055	1538.854	424.625	-323.589	1882.679	73.739	-203.508	1441.626	68.534	-301.336	1738.348	837.946	-277.000	1742.555	836.355	-152.889	1734.142	839.536	-401.111	1498.398	913.266	-231.896	1493.555	915.006	-286.946	1797.549	422.448	-138.097	1531.549	420.359	-394.587	1770.431	403.463	-274.648	1538.487	422.038	-240.955	1874.009	71.996	-166.038	1423.679	71.242	-336.419	1887.081	87.205	-240.198	1443.403	87.309	-260.671	1546.329	1340.170	-268.577	1670.624	1267.621	-229.930	1671.015	1271.551	-312.563	1654.058	1265.360	-283.849	1702.994	1189.881	-285.864	1865.037	619.338	-144.384	1752.827	561.394	-358.030	1817.127	619.618	-159.083	1708.318	586.851	-363.207	1829.895	543.618	-167.059	1675.663	521.708	-354.076	1926.874	237.833	-178.481	1443.036	172.322	-409.868	1883.447	234.060	-189.319	1449.618	186.374	-363.924	1989.611	76.053	-198.406	1537.449	45.886	-315.904
	44	0.59167	1634.886	764.068	-275.074	1619.345	766.810	-195.077	1613.096	768.952	-350.566	1795.474	420.154	-209.981	1543.793	424.316	-323.846	1896.107	74.471	-203.584	1442.106	69.389	-301.645	1745.497	837.183	-277.062	1750.486	835.473	-152.929	1740.509	838.893	-401.196	1505.888	912.441	-230.282	1500.700	914.239	-285.277	1804.166	421.519	-139.024	1535.892	420.404	-394.800	1773.762	402.984	-276.157	1539.519	427.727	-241.942	1887.653	72.704	-166.065	1424.191	72.327	-336.726	1899.673	88.258	-240.382	1443.628	88.335	-260.916	1553.081	1338.980	-268.177	1677.701	1266.335	-229.281	1676.797	1270.254	-312.444	1660.528	1264.387	-283.484	1709.107	1188.549	-285.946	1871.466	617.105	-144.996	1758.403	560.124	-359.445	1823.877	617.871	-159.526	1716.636	585.258	-364.527	1835.490	541.582	-167.922	1680.745	520.611	-355.054	1937.212	239.697	-179.380	1444.822	173.254	-410.172	1893.516	235.265	-189.843	1451.246	187.140	-364.301	2003.389	77.814	-198.808	1537.709	45.952	-315.867
	45	0.60000	1642.090	763.328	-274.463	1627.051	766.008	-194.388	1619.847	768.276	-349.833	1802.092	419.478	-210.699	1548.860	423.997	-324.121	1908.160	74.937	-203.820	1442.647	70.299	-301.988	1752.701	836.441	-277.090	1758.456	834.630	-152.918	1746.946	838.253	-401.262	1513.445	911.650	-228.688	1507.944	913.494	-283.607	1810.902	420.588	-139.752	1540.400	420.445	-395.030	1778.202	403.592	-279.813	1545.938	426.623	-242.110	1899.950	73.160	-166.247	1424.771	73.472	-337.068	1911.673	88.694	-240.687	1442.689	89.884	-260.981	1559.994	1337.678	-267.373	1684.361	1265.387	-229.272	1683.465	1269.540	-312.416	1667.173	1263.440	-283.149	1715.917	1187.819	-286.149	1878.081	615.146	-145.556	1764.069	558.899	-360.771	1831.142	616.174	-160.385	1722.353	584.352	-365.239	1841.427	539.934	-169.498	1686.397	519.969	-355.956	1946.843	241.003	-180.360	1446.712	174.245	-410.495	1903.132	235.831	-190.814	1452.245	188.346	-364.618	2015.756	79.322	-199.218	1537.966	46.007	-315.828
